Coordinates
version=1
nRows=7
nColumns=40
inDegrees=yes

Units are S.I. units (second, meters, Newtons, ...)
If the header above contains a line with 'inDegrees', this indicates whether rotational values are in degrees (yes) or radians (no).

endheader
time	pelvis_tilt	pelvis_list	pelvis_rotation	pelvis_tx	pelvis_ty	pelvis_tz	hip_flexion_r	hip_adduction_r	hip_rotation_r	knee_angle_r	knee_angle_r_beta	ankle_angle_r	subtalar_angle_r	mtp_angle_r	hip_flexion_l	hip_adduction_l	hip_rotation_l	knee_angle_l	knee_angle_l_beta	ankle_angle_l	subtalar_angle_l	mtp_angle_l	lumbar_extension	lumbar_bending	lumbar_rotation	arm_flex_r	arm_add_r	arm_rot_r	elbow_flex_r	pro_sup_r	wrist_flex_r	wrist_dev_r	arm_flex_l	arm_add_l	arm_rot_l	elbow_flex_l	pro_sup_l	wrist_flex_l	wrist_dev_l
      1.24000000	     -0.25550175	     -7.93195187	     87.37319611	      0.19668302	      0.93693606	     -1.24547118	     32.23461125	     -2.14291495	     -3.38081313	     54.60840518	      0.95309647	      0.11586521	      0.00000000	     -0.00000000	      9.77075063	      3.46523605	     -4.06055558	      8.33125192	      0.14540778	      0.94419088	      0.00000000	      0.00000000	     -1.20282772	      0.22361252	     -0.53683580	      0.00000000	     -0.00000000	      0.00000000	      0.00000000	      0.00000000	      0.00000000	     -0.00000000	      0.00000000	      0.00000000	     -0.00000000	      0.00000000	      0.00000000	     -0.00000000	      0.00000000
      1.25000000	     -0.03174477	     -7.82290843	     87.72256080	      0.19655933	      0.93738318	     -1.26340819	     32.97952777	     -1.95238655	     -3.95972554	     50.85997438	      0.88767401	      0.23951693	      0.00000000	      0.00000000	      7.67688821	      3.41608019	     -3.63291511	      6.87456796	      0.11998385	      1.05993805	      0.00000000	      0.00000000	     -1.42770872	      0.51964484	     -1.15643869	      0.00000000	      0.00000000	      0.00000000	      0.00000000	      0.00000000	      0.00000000	      0.00000000	      0.00000000	      0.00000000	      0.00000000	      0.00000000	      0.00000000	      0.00000000	      0.00000000
      1.26000000	      0.14937897	     -7.80606392	     88.08577224	      0.19653812	      0.93709417	     -1.28142726	     33.67236826	     -1.76023030	     -4.49881553	     46.80081020	      0.81682823	      0.22373583	     -0.00000000	      0.00000000	      5.73756038	      3.38521650	     -3.10634522	      5.53143709	      0.09654179	      1.23676392	      0.00000000	      0.00000000	     -1.51598007	      0.76290365	     -1.75575941	      0.00000000	      0.00000000	     -0.00000000	      0.00000000	      0.00000000	     -0.00000000	     -0.00000000	     -0.00000000	     -0.00000000	      0.00000000	      0.00000000	      0.00000000	     -0.00000000	     -0.00000000
      1.27000000	      0.25585474	     -7.79219005	     88.46158364	      0.19658327	      0.93614971	     -1.29956395	     34.25302548	     -1.62692408	     -5.00518330	     42.51733837	      0.74206754	      0.07426846	      0.00000000	     -0.00000000	      3.82998934	      3.39908894	     -2.61991278	      4.25239957	      0.07421837	      1.44759780	     -0.00000000	     -0.00000000	     -1.57852527	      0.91173126	     -2.42562059	      0.00000000	      0.00000000	     -0.00000000	      0.00000000	      0.00000000	     -0.00000000	      0.00000000	     -0.00000000	     -0.00000000	     -0.00000000	      0.00000000	      0.00000000	     -0.00000000	      0.00000000
      1.28000000	      0.27577908	     -7.87390540	     88.83936204	      0.19669400	      0.93447323	     -1.31783352	     34.83422027	     -1.54397081	     -5.44282880	     38.05355105	      0.66415976	     -0.17306707	      0.00000000	      0.00000000	      2.07924414	      3.47594096	     -2.07980551	      3.10510546	      0.05419431	      1.70812824	      0.00000000	      0.00000000	     -1.51808994	      0.96114206	     -3.05552918	      0.00000000	      0.00000000	      0.00000000	      0.00000000	      0.00000000	      0.00000000	      0.00000000	      0.00000000	      0.00000000	      0.00000000	      0.00000000	      0.00000000	      0.00000000	      0.00000000
      1.29000000	      0.20557850	     -7.72808170	     89.14097560	      0.19698761	      0.93248397	     -1.33641605	     35.07805636	     -1.48010070	     -5.74276129	     33.47349752	      0.58422274	     -0.30010922	      0.00000000	      0.00000000	     -0.02896547	      3.62310968	     -1.57970177	      1.78929734	      0.03122913	      1.88410079	      0.00000000	      0.00000000	     -1.69544013	      0.89344959	     -3.65066453	      0.00000000	      0.00000000	      0.00000000	      0.00000000	      0.00000000	      0.00000000	      0.00000000	      0.00000000	      0.00000000	      0.00000000	      0.00000000	      0.00000000	      0.00000000	      0.00000000
      1.30000000	      0.01918073	     -7.70198115	     89.38755988	      0.19740833	      0.92971056	     -1.35516684	     35.41764397	     -1.47451903	     -5.90519528	     28.90106759	      0.50441879	     -0.35914380	      0.00000000	      0.00000000	     -1.96424795	      3.86184172	     -1.09058767	      0.60374101	      0.01053727	      2.14642406	      0.00000000	      0.00000000	     -1.70961047	      0.69002765	     -4.19340312	      0.00000000	      0.00000000	      0.00000000	      0.00000000	      0.00000000	      0.00000000	      0.00000000	      0.00000000	      0.00000000	      0.00000000	      0.00000000	      0.00000000	      0.00000000	      0.00000000
